# xmcd CD database file
#
# Track frame offsets:
#	150
#	12551
#	25151
#	37945
#	48338
#	62363
#	72852
#	84326
#	98501
#	110276
#	124202
#	136275
#	150151
#	162599
#	175830
#	186984
#	195960
#	207339
#	219997
#	232682
#
# Disc length: 3262 seconds
#
# Revision: 0
# Processed by: cddbd v1.5.2PL0 Copyright (c) Steve Scherf et al.
# Submitted via: CDex 1.51
#
DISCID=f70cbc14
DTITLE=Ray Charles - Rockin' Chair Blues
DYEAR=1900
DGENRE=Jazz
TTITLE0=Ray Charles and The Maxim Trio - Rockin' Chair Blues
TTITLE1=Ray Charles and The Maxim Trio -  Blues Before Sunrise
TTITLE2=Ray Charles -  Greenbacks
TTITLE3=Ray Charles -  Hey Now
TTITLE4=Ray Charles - Kissa me Baby
TTITLE5=Ray Charles -  Blackjack
TTITLE6=Ray Charles -  When have I done (Ray Charles blues)
TTITLE7=Ray Charles -  Walking' &Talking' (To Myself)
TTITLE8=Ray Charles -  Roll with me baby
TTITLE9=Ray Charles -  Come back baby
TTITLE10=Ray Charles -  Mess around
TTITLE11=Ray Charles -  Late in the evening blues
TTITLE12=Ray Charles -  Jumpin' in the morning
TTITLE13=Ray Charles -  Don't you know
TTITLE14=Ray Charles and The Maxim Trio - Confession Blues
TTITLE15=Ray Charles Trio - All to myself allone
TTITLE16=Ray Charles - Back Home
TTITLE17=Ray Charles and The Maxim Trio - Can anyone ask for more
TTITLE18=Ray Charles - Feelin' sad
TTITLE19=20. CD Track
EXTD=
EXTT0=
EXTT1=
EXTT2=
EXTT3=
EXTT4=
EXTT5=
EXTT6=
EXTT7=
EXTT8=
EXTT9=
EXTT10=
EXTT11=
EXTT12=
EXTT13=
EXTT14=
EXTT15=
EXTT16=
EXTT17=
EXTT18=
EXTT19=
PLAYORDER=
